<?xml version="1.0" encoding="utf-8"?>
<!-- Generator: Adobe Illustrator 24.0.1, SVG Export Plug-In . SVG Version: 6.00 Build 0)  -->
<svg version="1.1" id="Layer_1" xmlns="http://www.w3.org/2000/svg" xmlns:xlink="http://www.w3.org/1999/xlink" x="0px" y="0px"
	 viewBox="0 0 499.3 101.5" style="enable-background:new 0 0 499.3 101.5;" xml:space="preserve">
<style type="text/css">
	.st0{fill:#283544;}
	.st1{fill:#FFFFFF;}
	.st2{fill:#F68E56;}
	.st3{fill:none;}
</style>
<title>rm-logo-dark</title>
<polygon class="st0" points="97.3,65.3 95.5,62.9 97.9,61 95.5,59.1 97.3,56.7 102.7,61 "/>
<path class="st0" d="M61.1,94l-1.9-2.3l7.5-6l1.9,2.3L61.1,94z M73.2,84.5l-1.9-2.3l7.5-6l1.9,2.3L73.2,84.5z M85.3,74.9l-1.9-2.3
	l7.5-6l1.9,2.3L85.3,74.9z"/>
<polygon class="st0" points="51.8,101.5 46.9,97.6 48.8,95.3 51.8,97.6 54.8,95.3 56.6,97.6 "/>
<path class="st0" d="M42.4,94l-7.5-6l1.9-2.3l7.5,6L42.4,94z M30.3,84.4l-7.5-6l1.9-2.3l7.5,6L30.3,84.4z M18.3,74.9l-7.5-6l1.9-2.3
	l7.5,6L18.3,74.9z"/>
<polygon class="st0" points="6.2,65.3 0.8,61 6.2,56.7 8.1,59.1 5.6,61 8.1,62.9 "/>
<path class="st0" d="M12.6,55.5l-1.9-2.3l7.5-6l1.9,2.3L12.6,55.5z M24.7,45.9l-1.9-2.3l7.5-6l1.9,2.3L24.7,45.9z M36.7,36.3
	L34.9,34l7.5-6l1.9,2.3L36.7,36.3z"/>
<polygon class="st0" points="54.8,26.7 51.8,24.4 48.8,26.7 46.9,24.4 51.8,20.5 56.6,24.4 "/>
<path class="st0" d="M91,55.5l-7.5-6l1.9-2.3l7.5,6L91,55.5z M78.9,45.9l-7.5-6l1.9-2.3l7.5,6L78.9,45.9z M66.8,36.3l-7.5-6l1.9-2.3
	l7.5,6L66.8,36.3z"/>
<polygon class="st1" points="100.3,51.1 51.8,89.7 3.2,51.1 51.8,12.6 "/>
<path class="st0" d="M51.8,92.2L0,51.1L51.8,10l51.8,41.1L51.8,92.2z M6.4,51.1l45.3,36l45.3-36l-45.3-36L6.4,51.1z"/>
<polygon class="st1" points="100.3,41.1 51.8,79.7 3.2,41.1 51.8,2.5 "/>
<path class="st0" d="M51.8,82.2L0,41.1L51.8,0l51.8,41.1L51.8,82.2z M6.4,41.1l45.3,36l45.3-36l-45.3-36L6.4,41.1z"/>
<polygon class="st2" points="83.7,52.7 68,66.4 20.7,27.6 36.4,15 "/>
<path class="st0" d="M68.1,69L17.5,27.6l18.8-15.2l50.5,40.3L68.1,69z M23.9,27.6L68,63.8l12.6-11L36.4,17.5L23.9,27.6z"/>
<line class="st3" x1="43.2" y1="7.5" x2="91.7" y2="46"/>
<rect x="65.4" y="-4.2" transform="matrix(0.6218 -0.7831 0.7831 0.6218 4.5327 62.9367)" class="st0" width="4" height="62"/>
<path class="st0" d="M161.2,70.9h-7.7l-13.2-18.1H133v18.1h-6.2V29h17c1.6,0,3.2,0.3,4.7,0.9c1.4,0.6,2.7,1.5,3.8,2.5
	c1.1,1.1,2,2.3,2.6,3.8c1.7,3.9,1.1,8.5-1.5,11.8c-1.6,2-3.8,3.5-6.2,4.2L161.2,70.9z M143.8,47c0.8,0,1.6-0.2,2.4-0.5
	c0.7-0.3,1.4-0.8,1.9-1.3c0.5-0.6,1-1.3,1.3-2c0.3-0.8,0.5-1.6,0.5-2.5c0-0.8-0.2-1.7-0.5-2.4c-0.3-0.7-0.7-1.4-1.3-2
	c-0.5-0.6-1.2-1-1.9-1.3c-0.7-0.3-1.5-0.5-2.4-0.5H133v12.6L143.8,47z"/>
<path class="st0" d="M169.4,36.5c-1,0-1.9-0.4-2.6-1.1c-0.7-0.7-1.1-1.6-1.1-2.6c0-2,1.6-3.7,3.7-3.7s3.7,1.6,3.7,3.7l0,0
	c0,1-0.4,1.9-1.1,2.6C171.3,36.1,170.4,36.5,169.4,36.5z M172.4,70.9h-5.8V42.6h5.7L172.4,70.9z"/>
<path class="st0" d="M192.6,69.5c-3.7,0-7.2-1.5-9.7-4.1c-1.2-1.3-2.2-2.8-2.8-4.4c-0.7-1.7-1-3.5-1-5.3c0-3.6,1.4-7.1,3.9-9.7
	c1.2-1.3,2.6-2.3,4.2-3c3.4-1.3,7.1-1.4,10.6-0.2c1.4,0.6,2.7,1.4,3.8,2.5l1.2-2.8h4.5v7.6c0,1.6,0,3.7,0,6.2s0,5.5,0,9
	c0,1.2,0,2.3-0.1,3.5c-0.1,1.1-0.2,2.2-0.5,3.2c-0.3,1-0.6,2-1.1,3c-0.5,1-1.2,2-2,2.8c-1.5,1.6-3.3,2.7-5.4,3.3
	c-2,0.6-4.2,0.9-6.3,0.9c-1.8,0-3.6-0.2-5.4-0.7c-1.6-0.4-3.1-1-4.5-1.8v-6.3c0.9,1.3,2.2,2.2,3.7,2.8c1.8,0.7,3.7,1.1,5.7,1.1
	c1.4,0,2.7-0.2,4-0.6c1.2-0.4,2.3-0.9,3.2-1.7c0.9-0.8,1.7-1.8,2.2-3c0.6-1.4,0.8-2.9,0.8-4.4v-1.1c-0.5,0.5-1.1,0.9-1.8,1.2
	c-0.7,0.4-1.5,0.7-2.2,1c-0.8,0.3-1.7,0.5-2.5,0.7C194.2,69.4,193.4,69.5,192.6,69.5z M193.1,47.2c-2.2,0-4.4,0.9-5.9,2.5
	c-1.6,1.6-2.5,3.8-2.5,6c0,1.1,0.2,2.3,0.6,3.3c0.4,1,1,1.9,1.8,2.7c0.8,0.8,1.7,1.4,2.7,1.8c1,0.5,2.1,0.7,3.2,0.7
	c1.1,0,2.2-0.2,3.3-0.5c1-0.3,1.9-0.9,2.7-1.6c0.8-0.8,1.4-1.7,1.8-2.7c0.5-1.2,0.7-2.5,0.6-3.8c0-1.3-0.2-2.7-0.6-3.9
	c-0.4-1-1-1.9-1.8-2.6c-0.8-0.7-1.7-1.2-2.7-1.5C195.3,47.3,194.2,47.2,193.1,47.2z"/>
<path class="st0" d="M221.2,70.9h-5.7V27.8h5.7v17.4c0.9-1.1,2.1-1.9,3.3-2.5c1.3-0.5,2.6-0.8,4-0.7c1.8,0,3.6,0.4,5.3,1.2
	c1.5,0.7,2.9,1.8,4,3.2c1.1,1.4,2,3,2.5,4.7c0.6,1.9,0.9,3.8,0.9,5.8v14.1h-5.7V56.8c0-1.3-0.2-2.6-0.6-3.8
	c-0.3-1.1-0.8-2.1-1.5-3.1c-0.6-0.8-1.4-1.5-2.2-2c-0.8-0.5-1.8-0.7-2.7-0.7c-0.9,0-1.7,0.2-2.5,0.5c-0.9,0.4-1.7,0.9-2.3,1.6
	c-0.8,0.9-1.3,1.9-1.7,3c-0.5,1.4-0.7,2.9-0.7,4.4L221.2,70.9z"/>
<path class="st0" d="M259,71.8c-1.5,0.1-2.9-0.1-4.2-0.7c-1.3-0.6-2.4-1.7-3.1-3c-0.9-1.9-1.3-4-1.1-6.1V47.7h-4.1v-3.9l4.1-1.2
	v-7.5h5.7v7.5h7.7v5.1h-7.7v15.2c0,0.8,0.1,1.5,0.3,2.2c0.2,0.5,0.6,1,1.1,1.2c0.6,0.3,1.3,0.4,2,0.4c1,0,2-0.1,3-0.2l1.1,4.2
	C262.2,71.3,260.6,71.7,259,71.8z"/>
<path class="st0" d="M305.3,29h6.3v41.9h-6.2V38.8l-12.2,16.8h-4.8L276,38.8v32.1h-6.2V29h6.2l14.7,20.1L305.3,29z"/>
<path class="st0" d="M332.7,71.6c-2,0-3.9-0.4-5.8-1.2c-5.5-2.3-9-7.7-9-13.7c0-3.9,1.4-7.6,4-10.5c1.2-1.3,2.7-2.4,4.3-3.2
	c1.7-0.8,3.5-1.1,5.4-1.1c1.8,0,3.6,0.3,5.4,1c1.6,0.7,3.1,1.8,4.2,3.1c1.3,1.6,2.2,3.4,2.8,5.4c0.7,2.5,1.1,5.2,1,7.8h-21
	c0.3,1,0.7,2,1.3,2.9c0.6,0.9,1.3,1.6,2.1,2.3c0.8,0.7,1.7,1.2,2.7,1.5c1,0.4,2.1,0.5,3.2,0.5c1.4,0,2.8-0.3,4.2-0.8
	c1.2-0.5,2.3-1.3,3.3-2.2l3.5,3.5c-1.4,1.4-3.2,2.5-5,3.3C337.1,71.2,334.9,71.6,332.7,71.6z M331.6,47.2c-0.9,0-1.8,0.2-2.6,0.5
	c-0.8,0.4-1.6,0.9-2.2,1.5c-0.7,0.6-1.3,1.4-1.8,2.2c-0.5,0.9-0.9,1.8-1.1,2.8h14.9c-0.1-0.9-0.3-1.9-0.6-2.7
	c-0.7-1.7-2-3.1-3.7-3.8C333.6,47.3,332.6,47.1,331.6,47.2z"/>
<path class="st0" d="M364.6,65c0.4-0.3,0.7-0.7,1-1.1c0.3-0.4,0.4-0.9,0.4-1.4c0-0.6-0.2-1.2-0.7-1.6c-0.5-0.5-1-0.8-1.6-1.1
	c-0.6-0.3-1.3-0.5-2-0.7c-0.7-0.2-1.3-0.3-1.8-0.4c-1.2-0.3-2.5-0.7-3.7-1.2c-1.1-0.4-2.1-1-3-1.7c-0.8-0.6-1.5-1.4-2-2.3
	c-0.5-1-0.8-2.1-0.7-3.2c0-1.1,0.3-2.2,0.8-3.2c0.6-1,1.3-1.9,2.2-2.7c1-0.8,2.1-1.4,3.2-1.8c1.3-0.5,2.6-0.7,3.9-0.7
	c1.2,0,2.4,0.2,3.5,0.5c1.1,0.3,2.1,0.8,3,1.5c0.9,0.6,1.6,1.4,2.2,2.2c0.6,0.9,1,1.9,1.2,2.9l-5.1,1.2c-0.2-0.9-0.8-1.8-1.5-2.4
	c-0.9-0.7-2.1-1-3.2-0.9c-0.5,0-1,0.1-1.5,0.2c-0.5,0.1-1,0.3-1.4,0.6c-0.4,0.3-0.8,0.6-1.1,1c-0.3,0.4-0.4,0.9-0.4,1.3
	c0,0.5,0.2,1,0.5,1.4c0.3,0.4,0.7,0.7,1.2,1c0.5,0.3,1,0.5,1.5,0.6l1.5,0.4c1.8,0.4,3.5,1,5.2,1.7c1.2,0.5,2.3,1.1,3.3,1.9
	c0.8,0.6,1.4,1.4,1.7,2.3c0.3,0.9,0.5,1.9,0.5,2.9c0,1.2-0.3,2.4-0.9,3.5c-0.6,1.1-1.4,2.1-2.5,2.9c-1.1,0.8-2.3,1.5-3.6,1.9
	c-1.5,0.5-3,0.7-4.5,0.7c-2.3,0-4.6-0.6-6.5-1.8c-1.8-1.1-3.2-2.8-3.9-4.8l4.8-2.2c0.5,1.2,1.3,2.2,2.4,2.8c1.1,0.5,2.2,0.8,3.4,0.7
	C362.1,66.4,363.5,65.9,364.6,65z"/>
<path class="st0" d="M391,65c0.4-0.3,0.7-0.7,1-1.1c0.3-0.4,0.4-0.9,0.4-1.4c0-0.6-0.2-1.2-0.7-1.6c-0.5-0.5-1-0.8-1.6-1.1
	c-0.6-0.3-1.3-0.5-2-0.7c-0.7-0.2-1.3-0.3-1.8-0.4c-1.2-0.3-2.5-0.7-3.7-1.2c-1.1-0.4-2.1-1-3-1.7c-0.8-0.6-1.5-1.4-2-2.3
	c-0.5-1-0.8-2.1-0.7-3.2c0-1.1,0.3-2.2,0.8-3.2c0.6-1,1.3-1.9,2.2-2.7c1-0.8,2.1-1.4,3.2-1.8c1.3-0.5,2.6-0.7,3.9-0.7
	c1.2,0,2.4,0.2,3.5,0.5c1.1,0.3,2.1,0.8,3,1.5c0.9,0.6,1.6,1.4,2.2,2.2c0.6,0.9,1,1.9,1.2,2.9l-5.1,1.2c-0.2-0.9-0.8-1.8-1.5-2.4
	c-0.9-0.7-2.1-1-3.2-0.9c-0.5,0-1,0.1-1.5,0.2c-0.5,0.1-1,0.3-1.4,0.6c-0.4,0.3-0.8,0.6-1.1,1c-0.3,0.4-0.4,0.9-0.4,1.3
	c0,0.5,0.2,1,0.5,1.4c0.3,0.4,0.7,0.7,1.2,1c0.5,0.3,1,0.5,1.5,0.6l1.5,0.4c1.8,0.4,3.5,1,5.2,1.7c1.2,0.5,2.3,1.1,3.3,1.9
	c0.8,0.6,1.4,1.4,1.7,2.3c0.3,0.9,0.5,1.9,0.5,2.9c0,1.2-0.3,2.4-0.9,3.5c-0.6,1.1-1.4,2.1-2.4,2.9c-1.1,0.8-2.3,1.5-3.6,1.9
	c-1.5,0.5-3,0.7-4.5,0.7c-2.3,0-4.6-0.6-6.5-1.8c-1.8-1.1-3.2-2.8-3.9-4.8l4.8-2.2c0.5,1.2,1.3,2.2,2.4,2.8c1.1,0.5,2.2,0.8,3.4,0.7
	C388.5,66.4,389.9,65.9,391,65z"/>
<path class="st0" d="M431,42.6v28.3h-4.8l-0.9-3.2c-1,1.3-2.3,2.3-3.8,2.9c-1.5,0.7-3.1,1-4.7,1c-1.9,0-3.8-0.4-5.5-1.2
	c-1.7-0.8-3.2-1.8-4.5-3.2c-4.1-4.4-5.3-10.7-3-16.3c0.7-1.8,1.7-3.4,3-4.7c1.3-1.3,2.8-2.4,4.5-3.2c1.7-0.8,3.6-1.1,5.5-1.1
	c1.6,0,3.1,0.3,4.5,0.9c1.5,0.6,2.8,1.6,3.9,2.9l0.9-3.1L431,42.6z M416.8,66.5c1.1,0,2.2-0.3,3.2-0.8c1-0.5,1.9-1.2,2.7-2.1
	c0.8-0.9,1.4-2,1.8-3.1c0.9-2.4,0.9-5.1,0-7.6c-0.4-1.1-1-2.2-1.8-3.1c-0.7-0.9-1.6-1.6-2.7-2.1c-2-1-4.4-1-6.5,0
	c-1,0.5-1.9,1.2-2.7,2.1c-0.8,0.9-1.4,2-1.8,3.1c-0.9,2.4-0.9,5.1,0,7.6c0.4,1.1,1,2.2,1.8,3.1c0.7,0.9,1.6,1.6,2.7,2.1
	C414.5,66.3,415.7,66.5,416.8,66.5z"/>
<path class="st0" d="M450.6,69.5c-3.7,0-7.2-1.5-9.7-4.1c-1.2-1.3-2.2-2.7-2.9-4.4c-0.7-1.7-1-3.5-1-5.3c0-3.6,1.4-7.1,3.9-9.7
	c1.2-1.3,2.7-2.3,4.3-3c3.4-1.3,7.1-1.4,10.6-0.2c1.4,0.6,2.7,1.4,3.8,2.5l1.2-2.8h4.5v7.6c0,1.6,0,3.7,0,6.2s0,5.5,0,9
	c0,1.2,0,2.3-0.1,3.5c-0.1,1.1-0.2,2.2-0.5,3.2c-0.3,1-0.6,2-1.1,3c-0.5,1-1.2,2-2,2.8c-1.5,1.6-3.3,2.7-5.4,3.3
	c-2,0.6-4.2,0.9-6.3,0.9c-1.8,0-3.6-0.2-5.4-0.7c-1.6-0.4-3.1-1.1-4.5-1.9v-6.3c0.9,1.3,2.2,2.2,3.7,2.8c1.8,0.7,3.7,1.1,5.7,1.1
	c1.4,0,2.7-0.2,4-0.6c1.2-0.4,2.3-0.9,3.2-1.7c0.9-0.8,1.7-1.8,2.2-3c0.6-1.4,0.8-2.9,0.8-4.4v-1.1c-0.5,0.5-1.1,0.9-1.7,1.2
	c-0.7,0.4-1.5,0.7-2.2,1c-0.8,0.3-1.7,0.5-2.5,0.7C452.2,69.4,451.4,69.5,450.6,69.5z M451.1,47.2c-2.2,0-4.4,0.9-6,2.5
	c-1.6,1.6-2.5,3.8-2.5,6c0,1.1,0.2,2.3,0.6,3.3c0.4,1,1,1.9,1.8,2.7c0.8,0.8,1.7,1.4,2.7,1.8c1,0.5,2.1,0.7,3.2,0.7
	c1.1,0,2.2-0.2,3.3-0.5c1-0.3,1.9-0.9,2.6-1.6c0.8-0.8,1.4-1.7,1.8-2.7c0.5-1.2,0.7-2.5,0.6-3.8c0-1.3-0.2-2.7-0.6-3.9
	c-0.4-1-1-1.9-1.8-2.6c-0.8-0.7-1.7-1.2-2.7-1.5C453.3,47.3,452.2,47.2,451.1,47.2z"/>
<path class="st0" d="M487,71.6c-2,0-3.9-0.4-5.8-1.2c-1.8-0.7-3.3-1.8-4.7-3.2c-2.8-2.8-4.3-6.6-4.3-10.5c0-3.9,1.4-7.6,4-10.5
	c1.2-1.3,2.7-2.4,4.3-3.2c1.7-0.8,3.5-1.1,5.3-1.1c1.8,0,3.6,0.3,5.3,1c1.6,0.7,3.1,1.8,4.2,3.1c1.3,1.6,2.2,3.4,2.8,5.4
	c0.7,2.5,1.1,5.2,1,7.8h-21c0.3,1,0.7,2,1.3,2.9c0.6,0.9,1.3,1.6,2.1,2.3c0.8,0.7,1.7,1.2,2.7,1.5c1,0.4,2.1,0.5,3.2,0.5
	c2.8,0,5.5-1.1,7.4-3l3.5,3.6c-1.4,1.4-3.2,2.5-5,3.3C491.4,71.2,489.2,71.6,487,71.6z M485.9,47.2c-0.9,0-1.8,0.2-2.6,0.5
	c-0.8,0.4-1.6,0.9-2.2,1.5c-0.7,0.7-1.3,1.4-1.8,2.2c-0.5,0.9-0.9,1.8-1.1,2.8h14.9c-0.1-0.9-0.3-1.9-0.6-2.7
	c-0.7-1.7-2-3.1-3.7-3.8C487.9,47.3,486.9,47.1,485.9,47.2L485.9,47.2z"/>
</svg>
